<?xml version="1.0" encoding="utf-8"?>
<!-- Generator: Adobe Illustrator 26.3.1, SVG Export Plug-In . SVG Version: 6.00 Build 0)  -->
<svg version="1.1" id="Layer_1" xmlns="http://www.w3.org/2000/svg" xmlns:xlink="http://www.w3.org/1999/xlink" x="0px" y="0px"
	 viewBox="0 0 700 700" style="enable-background:new 0 0 700 700;" xml:space="preserve">
<path d="M624.9,287.3c-34.8-4.8-69.9-7.2-105-7.2c-51.9-1.4-103.6,6.8-152.6,24h-35c-48.9-17.2-100.5-25.3-152.4-24
	c-35.1,0-70.2,2.4-105,7.4c-3,0.5-5.2,3-5.2,6.1v43.6c0.1,2.9,2.1,5.5,5,6.1c9.3,1.8,10.1,6.1,10.3,6.5c-0.1,0.4-0.1,0.8,0,1.2
	c4.5,29.2,14.6,57.3,29.8,82.6c9.1,13.8,21.9,24.7,37,31.4c14.7,6.6,30.6,9.9,46.7,9.8c24.5,0.1,48.6-6.1,70-17.9
	c20.8-10.7,37.6-27.9,47.8-48.9c2.5-5.8,4.6-11.8,6.3-17.9c2.2-10.6,6.7-20.5,13.2-29.2c4-3.4,9.1-5.2,14.4-5.4
	c5.5,0,10.9,1.9,15.3,5.2c6.5,8.6,11,18.6,13.2,29.2c1.8,6.1,3.9,12.1,6.5,18c10.3,21,27,38.2,47.8,48.9
	c21.1,11.6,44.8,17.7,68.8,17.9c16.1,0.1,32-3.2,46.7-9.8c14.9-6.8,27.6-17.7,36.6-31.4c15.2-25.3,25.3-53.4,29.8-82.6
	c0.1-0.4,0.1-0.8,0-1.2c0,0,0.8-4.8,10.1-6.5h0c2.9-0.6,5-3.1,5-6.1v-43.6C629.9,290.5,627.8,287.9,624.9,287.3L624.9,287.3z
	 M426.5,311.6c21.5-6.1,43.7-9.1,66-8.9H507h0c17-0.6,33.9,1.4,50.3,5.8c12.2,4.5,21.4,14.7,24.6,27.3c5.1,22.8-5.2,55.9-15.6,77.4
	c-5.8,11.3-14.8,20.6-25.8,26.8c-11.1,6.2-23.7,9.1-36.3,8.2c-24.5-0.6-48.5-7-70-18.7c-15-10.3-26.4-25-32.7-42.1
	c-5.8-11.6-9.7-24-11.7-36.8c0.8-18.3,13.2-31.6,37.2-39.1L426.5,311.6z M117.7,335.6c3.2-12.6,12.4-22.8,24.6-27.3
	c16.4-4.5,33.3-6.4,50.3-5.8h14.5c22.3-0.3,44.6,2.7,66,8.9c24,7.8,36.4,20.8,36.6,38.5c-2,12.8-5.9,25.2-11.7,36.8
	c-6.2,17.1-17.7,31.8-32.7,42c-21.5,11.8-45.5,18.2-70,18.8c-12.7,0.9-25.3-1.9-36.3-8.2s-20-15.6-25.8-26.8
	C123,391.5,112.6,358.4,117.7,335.6L117.7,335.6z"/>
</svg>
